<svg width="73" height="73" viewBox="0 0 73 73" xmlns="http://www.w3.org/2000/svg"><title>Icon with Highlight</title><g fill="none" fill-rule="evenodd"><path fill="#000" d="M0 0h73v73H0z"/><path d="M48.602 45.844c3.34.578 6.648 1.405 9.897 2.478-2.81 2.23-6.273 3.502-9.898 3.618v-6.096zm-11.816-2.88c-3.333 0-6.642.232-9.916.692V28.904l-1.408-.21c-3.57-.535-7.01-1.658-10.196-3.297 6.945-2.344 14.175-3.534 21.52-3.534 7.344 0 14.575 1.19 21.52 3.534-3.186 1.64-6.628 2.762-10.197 3.296l-1.41.21v14.753c-3.273-.46-6.582-.692-9.914-.692zM24.97 51.94c-3.627-.116-7.088-1.387-9.898-3.618 3.25-1.073 6.557-1.9 9.897-2.478v6.096zm0-7.99c-3.405.574-6.767 1.392-10.07 2.46V27.32c3.163 1.567 6.537 2.633 10.07 3.183V43.95zm23.632 0V30.504c3.532-.55 6.906-1.616 10.068-3.182v19.09c-3.302-1.068-6.664-1.886-10.068-2.46zM60.48 24.18C52.827 21.393 44.806 20 36.786 20s-16.042 1.393-23.695 4.178l-.09-.053v24.913h.004c3.414 3.07 7.88 4.774 12.515 4.774h1.35v-8.266c3.288-.475 6.602-.717 9.916-.717 3.313 0 6.627.242 9.915.717v8.267h1.352c4.635 0 9.1-1.703 12.515-4.774h.004v-24.91l-.09.053z" fill="#FFF"/></g></svg>