<?xml version="1.0" encoding="UTF-8"?>
<svg width="308px" height="39px" viewBox="0 0 308 39" version="1.1" xmlns="http://www.w3.org/2000/svg" xmlns:xlink="http://www.w3.org/1999/xlink">
    <!-- Generator: Sketch 51.2 (57519) - http://www.bohemiancoding.com/sketch -->
    <title>Group 13</title>
    <desc>Created with Sketch.</desc>
    <defs></defs>
    <g id="Page-1" stroke="none" stroke-width="1" fill="none" fill-rule="evenodd">
        <g id="Large-Screen" transform="translate(-43.000000, -46.000000)">
            <g id="Logo-+-Nav" transform="translate(43.000000, 46.000000)">
                <g id="Group-13">
                    <g id="Group-2">
                        <polygon id="Rectangle-2" fill="#000000" points="0 0 119 0 119 38.4428571 0 38.4428571"></polygon>
                        <g id="Group" transform="translate(8.000000, 0.000000)">
                            <g id="NAV">
                                <g id="Group-13">
                                    <g id="Group-2">
                                        <polygon id="Rectangle-2" fill="#000000" points="115 0 300 0 300 38.4428571 115 38.4428571"></polygon>
                                        <path d="M101.187993,25.3923429 L101.250575,27.5139429 C100.499586,27.9195429 99.5921404,28.1691429 98.715986,28.1691429 C96.8072211,28.1691429 95.8059018,27.1083429 95.5868632,25.3923429 C94.8045825,26.7963429 93.365186,28.1691429 91.0809263,28.1691429 C89.0469965,28.1691429 86.7627368,27.1083429 86.7627368,24.1443429 C86.7627368,20.7123429 90.0483158,19.9011429 93.3338947,19.9011429 C94.0848842,19.9011429 94.8984561,19.9011429 95.5868632,20.0259429 L95.5868632,19.5579429 C95.5868632,18.0915429 95.5868632,16.4067429 93.3338947,16.4067429 C92.4577404,16.4067429 91.8006246,16.4379429 91.1435088,16.8123429 L90.6741404,18.4035429 L87.4824351,18.0291429 L88.014386,14.7843429 C90.4551018,13.8171429 91.7693333,13.5051429 94.0848842,13.5051429 C97.0575509,13.5051429 99.686014,15.0963429 99.686014,18.3099429 L99.686014,24.3939429 C99.686014,25.2363429 99.9989263,25.4859429 100.656042,25.4859429 C100.781207,25.4859429 101.000246,25.4859429 101.187993,25.3923429 Z M92.551614,25.3299429 C93.9910105,25.3299429 95.4929895,24.2379429 95.5868632,21.9291429 C94.9297474,21.8355429 94.2413404,21.7419429 93.5842246,21.7419429 C92.1448281,21.7419429 90.8618877,22.1163429 90.8618877,23.7075429 C90.8618877,24.5811429 91.3625474,25.3299429 92.551614,25.3299429 Z M83.1329544,6.39154286 L87.1069404,6.39154286 L81.0051509,27.8571429 L77.0624561,27.8571429 L83.1329544,6.39154286 Z M74.9659439,6.39154286 L78.9399298,6.39154286 L72.8381404,27.8571429 L68.8641544,27.8571429 L74.9659439,6.39154286 Z M62.0113754,18.8403429 L66.2044,18.8403429 L66.2044,13.7859429 L62.0113754,13.7859429 L62.0113754,18.8403429 Z M62.0113754,27.8571429 L66.2044,27.8571429 L66.2044,22.8027429 L62.0113754,22.8027429 L62.0113754,27.8571429 Z M55.1898877,24.8307429 L50.6213684,24.8307429 L58.4441754,15.8763429 L58.1312632,13.7859429 L45.7086456,13.7859429 L45.207986,18.7155429 L48.1806526,19.0275429 L48.8064772,16.8123429 L53.1872491,16.8123429 L45.4270246,25.7355429 L45.8338105,27.8571429 L58.1938456,27.8571429 L59.0387088,22.9275429 L55.8470035,22.6467429 L55.1898877,24.8307429 Z M35.6328702,13.5051429 C40.7020491,13.5051429 43.2053474,16.9059429 43.2053474,20.8683429 C43.2053474,25.3299429 39.9197684,28.1691429 35.4138316,28.1691429 C31.0330596,28.1691429 28.060393,25.5483429 28.060393,21.0243429 C28.060393,16.9059429 30.5636912,13.5051429 35.6328702,13.5051429 Z M35.5077053,25.0803429 C37.6355088,25.0803429 39.0123228,23.3955429 39.0123228,20.7123429 C39.0123228,17.9043429 37.4790526,16.5939429 35.5702877,16.5939429 C33.5050667,16.5939429 32.1908351,18.1539429 32.1908351,20.7747429 C32.1908351,23.1771429 33.3486105,25.0803429 35.5077053,25.0803429 Z M24.4306105,18.4035429 C24.4306105,15.0339429 22.0837684,13.5051429 19.6117614,13.5051429 C17.358793,13.5051429 15.7316491,14.6907429 14.9806596,16.5627429 C14.3235439,14.4723429 12.4460702,13.5051429 10.3808491,13.5051429 C8.40950175,13.5051429 6.93881404,14.4411429 6.09395088,15.9075429 L6.09395088,13.7859429 L0.179908772,13.7859429 L0.179908772,16.8435429 L2.05738246,16.8435429 L2.05738246,24.8307429 L0.179908772,24.8307429 L0.179908772,27.8571429 L8.75370526,27.8571429 L8.75370526,24.8307429 L6.09395088,24.8307429 L6.09395088,19.9011429 C6.09395088,17.9355429 6.90752281,16.5627429 8.81628772,16.5627429 C10.3808491,16.5627429 11.2257123,17.5299429 11.2257123,19.9635429 L11.2257123,27.8571429 L17.1397544,27.8571429 L17.1397544,24.8307429 L15.2622807,24.8307429 L15.2622807,19.9011429 C15.2622807,17.9355429 16.0445614,16.5627429 17.9533263,16.5627429 C19.6117614,16.5627429 20.4253333,17.5299429 20.4253333,19.9635429 L20.4253333,27.8571429 L26.3393754,27.8571429 L26.3393754,24.8307429 L24.4306105,24.8307429 L24.4306105,18.4035429 Z" id="mozilla" fill="#FFFFFF"></path>
                                    </g>
                                </g>
                            </g>
                            <text id="Mixed-Reality" font-family="ZillaSlab-Regular, Zilla Slab" font-size="29" font-weight="normal" fill="#FFFFFF">
                                <tspan x="121" y="27">Mixed Reality</tspan>
                            </text>
                        </g>
                    </g>
                </g>
            </g>
        </g>
    </g>
</svg>