<svg width="177" height="39" viewBox="0 0 177 39" xmlns="http://www.w3.org/2000/svg">
  <title>
    Large Screen
  </title>
  <g fill="none" fill-rule="evenodd">
    <path fill="#000" d="M0 0h119v38.443H0M123 0h54v38.443h-54"/>
    <path d="M109.188 25.392l.063 2.122c-.75.406-1.65.655-2.53.655-1.91 0-2.91-1.07-3.13-2.78-.78 1.4-2.22 2.77-4.5 2.77-2.033 0-4.317-1.06-4.317-4.026 0-3.43 3.285-4.243 6.57-4.243.75 0 1.565 0 2.254.126v-.47c0-1.465 0-3.15-2.253-3.15-.876 0-1.533.03-2.19.405l-.47 1.59-3.192-.373.533-3.246c2.44-.965 3.752-1.28 6.07-1.28 2.97 0 5.6 1.594 5.6 4.808v6.084c0 .843.31 1.093.97 1.093.123 0 .342 0 .53-.095zm-8.636-.062c1.44 0 2.94-1.092 3.035-3.4-.657-.094-1.346-.188-2.003-.188-1.44 0-2.722.374-2.722 1.966 0 .873.5 1.622 1.69 1.622zm-9.42-18.938h3.975l-6.102 21.465h-3.943l6.07-21.465zm-8.166 0h3.974l-6.102 21.465h-3.974l6.102-21.465zM70.01 18.84h4.194v-5.054H70.01v5.054zm0 9.017h4.194v-5.054H70.01v5.054zm-6.82-3.026h-4.57l7.824-8.95-.313-2.09H53.71l-.502 4.93 2.973.31.63-2.21h4.38l-7.76 8.924.41 2.12H66.2l.844-4.93-3.192-.28-.656 2.18zM43.633 13.51c5.07 0 7.572 3.4 7.572 7.363 0 4.46-3.285 7.3-7.79 7.3-4.382 0-7.355-2.62-7.355-7.144 0-4.12 2.504-7.52 7.573-7.52zm-.125 11.575c2.128 0 3.504-1.683 3.504-4.367 0-2.808-1.533-4.118-3.442-4.118-2.065 0-3.38 1.56-3.38 4.18 0 2.403 1.16 4.306 3.318 4.306zm-11.078-6.68c0-3.37-2.346-4.9-4.818-4.9-2.253 0-3.88 1.187-4.63 3.06-.658-2.092-2.536-3.06-4.6-3.06-1.972 0-3.443.937-4.288 2.404v-2.13H8.18v3.057h1.877v7.988H8.18v3.03h8.574v-3.03h-2.66V19.9c0-1.964.814-3.337 2.722-3.337 1.565 0 2.41.967 2.41 3.4v7.894h5.914V24.83h-1.878V19.9c0-1.964.783-3.337 2.69-3.337 1.66 0 2.473.967 2.473 3.4v7.894h5.914V24.83h-1.91v-6.426zm117.636-7.328V8.9h-7.752v2.176h3.128l-6.188 16.252h-.17l-6.324-16.252h3.094V8.9h-7.99v2.176h2.176L138.03 31h1.972l7.99-19.924h2.074zM170.67 31h-4.42l-4.76-9.248h-4.726v7.072h2.958V31h-8.262v-2.176h2.788V11.076h-2.788V8.9h9.554c5.474 0 7.65 2.686 7.65 6.256 0 2.856-1.598 5.304-4.726 6.12l3.944 7.548h2.788V31zm-4.624-15.742c0-2.89-1.564-4.182-5.338-4.182h-3.944v8.602h4.012c3.774 0 5.27-1.666 5.27-4.42z" fill="#FFF"/>
  </g>
</svg>
