<?xml version="1.0" encoding="UTF-8" standalone="no"?>
<svg width="73px" height="73px" viewBox="0 0 73 73" version="1.1" xmlns="http://www.w3.org/2000/svg" xmlns:xlink="http://www.w3.org/1999/xlink">
    <!-- Generator: Sketch 45.2 (43514) - http://www.bohemiancoding.com/sketch -->
    <title>Icon with Highlight</title>
    <desc>Created with Sketch.</desc>
    <defs></defs>
    <g id="Page-1" stroke="none" stroke-width="1" fill="none" fill-rule="evenodd">
        <g id="Large-Screen" transform="translate(-684.000000, -209.000000)">
            <g id="VR-Intro" transform="translate(40.000000, 127.000000)">
                <g id="Icon-with-Highlight" transform="translate(644.000000, 82.000000)">
                    <rect id="Rectangle-4" fill="#000000" x="0" y="0" width="73" height="73"></rect>
                    <g id="Page-1" transform="translate(13.000000, 20.000000)" fill="#FFFFFF">
                        <path d="M35.6017426,25.843726 C38.9422574,26.421726 42.2499802,27.2493699 45.4992475,28.3215342 C42.6886337,30.5534247 39.2274059,31.8235342 35.6017426,31.9399726 L35.6017426,25.843726 Z M23.7856634,22.9635068 C20.4532277,22.9635068 17.143604,23.1963836 13.870099,23.6560822 L13.870099,8.90380822 L12.4619406,8.69282192 C8.89330693,8.15860274 5.45156436,7.03613699 2.26645545,5.39668493 C9.21077228,3.05254795 16.4411881,1.8630137 23.7856634,1.8630137 C31.1301386,1.8630137 38.3605545,3.05254795 45.3048713,5.39668493 C42.1197624,7.03613699 38.6775446,8.15860274 35.1089109,8.69282192 L33.7007525,8.90380822 L33.7007525,23.6560822 C30.4272475,23.1963836 27.1176238,22.9635068 23.7856634,22.9635068 L23.7856634,22.9635068 Z M11.9691089,31.9399726 C8.34344554,31.8235342 4.88221782,30.5534247 2.07207921,28.3215342 C5.32087129,27.2493699 8.62859406,26.421726 11.9691089,25.843726 L11.9691089,31.9399726 Z M11.9691089,23.9513699 C8.56491089,24.5237808 5.20253465,25.3416438 1.9009901,26.4091507 L1.9009901,7.32117808 C5.06328713,8.88657534 8.43659406,9.95315068 11.9691089,10.5027397 L11.9691089,23.9513699 Z M35.6017426,23.9513699 L35.6017426,10.5027397 C39.1342574,9.95315068 42.5075644,8.88657534 45.6703366,7.32117808 L45.6703366,26.4091507 C42.3683168,25.3416438 39.0064158,24.5237808 35.6017426,23.9513699 L35.6017426,23.9513699 Z M47.4800792,4.17780822 C39.8271683,1.39306849 31.8064158,0 23.7856634,0 C15.7649109,0 7.74415842,1.39306849 0.0912475248,4.17780822 C0.0613069307,4.15964384 0.0299405941,4.14334247 0,4.12471233 L0,4.21087671 L0,29.0327397 L0,29.0373973 L0.0038019802,29.036 C3.41845545,32.1071781 7.88435644,33.8113699 12.5189703,33.8113699 L13.870099,33.8113699 L13.870099,25.5437808 C17.1583366,25.0687123 20.4717624,24.8265205 23.7856634,24.8265205 C27.0990891,24.8265205 30.4129901,25.0687123 33.7007525,25.5437808 L33.7007525,33.8113699 L35.0523564,33.8113699 C39.6869703,33.8113699 44.1528713,32.1071781 47.5670495,29.036 L47.5713267,29.0373973 L47.5713267,29.0327397 L47.5713267,4.21087671 L47.5713267,4.12471233 C47.5413861,4.14334247 47.5100198,4.15964384 47.4800792,4.17780822 L47.4800792,4.17780822 Z" id="Fill-1"></path>
                    </g>
                </g>
            </g>
        </g>
    </g>
</svg>