<?xml version="1.0" encoding="UTF-8"?>
<svg width="1360px" height="394px" viewBox="0 0 1360 394" version="1.1" xmlns="http://www.w3.org/2000/svg" xmlns:xlink="http://www.w3.org/1999/xlink">
    <!-- Generator: Sketch 51.2 (57519) - http://www.bohemiancoding.com/sketch -->
    <title>Group 6</title>
    <desc>Created with Sketch.</desc>
    <defs>
        <linearGradient x1="100%" y1="23.1607068%" x2="-5.91677056%" y2="87.4701049%" id="linearGradient-1">
            <stop stop-color="#650D18" offset="0%"></stop>
            <stop stop-color="#031A46" offset="100%"></stop>
        </linearGradient>
        <linearGradient x1="88.7740401%" y1="0%" x2="1.41376873%" y2="87.1647377%" id="linearGradient-2">
            <stop stop-color="#540B14" offset="0%"></stop>
            <stop stop-color="#04276A" offset="100%"></stop>
        </linearGradient>
        <linearGradient x1="6.09182539%" y1="37.3719207%" x2="100%" y2="96.557%" id="linearGradient-3">
            <stop stop-color="#77101D" offset="0%"></stop>
            <stop stop-color="#002870" offset="100%"></stop>
        </linearGradient>
        <linearGradient x1="6.15602971%" y1="98.1757185%" x2="86.9796084%" y2="20.8079626%" id="linearGradient-4">
            <stop stop-color="#77101D" offset="0%"></stop>
            <stop stop-color="#8D1020" offset="21.6619709%"></stop>
            <stop stop-color="#520D17" offset="49.5016195%"></stop>
            <stop stop-color="#00286F" offset="71.9021279%"></stop>
            <stop stop-color="#031231" offset="100%"></stop>
        </linearGradient>
        <linearGradient x1="94.7744293%" y1="94.7744293%" x2="-3.33066907e-14%" y2="1.69054903e-14%" id="linearGradient-5">
            <stop stop-color="#81111F" offset="0%"></stop>
            <stop stop-color="#01173E" offset="96.5227601%"></stop>
        </linearGradient>
        <linearGradient x1="0%" y1="95.2724977%" x2="95.7534623%" y2="11.380989%" id="linearGradient-6">
            <stop stop-color="#58132A" offset="0%"></stop>
            <stop stop-color="#01286E" offset="85.9256417%"></stop>
            <stop stop-color="#510B14" offset="100%"></stop>
        </linearGradient>
    </defs>
    <g id="Page-1" stroke="none" stroke-width="1" fill="none" fill-rule="evenodd">
        <g id="Firefox_reality_design_v6-footer1" transform="translate(-40.000000, -441.000000)" stroke-width="3">
            <g id="Header" transform="translate(40.000000, 115.000000)">
                <g id="Group-6" transform="translate(-29.000000, 294.000000)">
                    <path d="M719.465613,372.701012 C754.375095,353.302129 805.83999,327.059311 830.157508,312.046823 C854.475026,297.034334 884.008593,278.03915 894.668523,264.114316 C905.328453,250.189481 915.997283,234.161998 916.369307,205.875836 C916.741332,177.589675 920.385899,145.560032 918.423007,121.407408 C917.166398,105.945329 914.833696,89.8773301 907.741801,83.162933 C903.755764,79.3890702 897.759439,78.8339776 890.843716,82.3574808 C883.649877,86.0226817 870.210481,94.9521125 855.266112,106.444712 C830.28301,125.657352 799.909842,153.308636 769.170219,170.200577 C716.07223,199.378817 636.857946,223.720133 605.67106,235.216988 C574.484174,246.713844 553.839963,264.965086 554.000935,301.54461 C554.064804,316.058429 554.539069,333.141129 557.556952,356.253308 C559.609763,371.974577 572.753583,406.128771 574.272359,410.310944 C575.791135,414.493118 582.942774,420.317658 600.485306,423.018398 C618.027839,425.719138 633.273603,423.456221 658.249696,408.48875 C683.22579,393.52128 684.556131,392.099894 719.465613,372.701012 Z" id="Path-10" stroke="url(#linearGradient-1)"></path>
                    <path d="M579.104604,415 C552.941132,396.237675 538.899841,385.061985 536.980733,381.47293 C534.102071,376.089346 518.386052,347.635734 516.61239,316.784374 C514.838728,285.933014 516.942593,255.890336 522.602036,245.976311 C528.261479,236.062287 539.159356,219.2945 555.842861,213.995625 C572.526366,208.696749 611.209644,200.616996 634.754295,191.514012 C658.298946,182.411027 695.890196,168.583262 711.310674,162.516963 C726.731153,156.450665 762.235048,142.890495 789.862423,122.141773 C817.489797,101.393052 849.553685,71.787723 856.523326,67.4071623 C863.492967,63.0266016 866.06973,65.6212233 871.627753,67.4071623 C877.185777,69.1931014 905.387469,77.9931244 908.077444,82.3076703 C910.767419,86.6222161 915.690981,90.4416501 917,104.904809" id="Path-11" stroke="url(#linearGradient-2)"></path>
                    <path d="M538,383 C530.8541,377.365446 476.302168,317.926375 443.631165,297.847893 C410.960162,277.769411 409.282153,275.872658 412.513,270.544079 C415.743848,265.2155 425.409231,272.862594 430.999448,275.165794 C436.589665,277.468993 445.012778,284.556487 451.021021,284.252535 C457.029264,283.948583 463.305564,278.774336 463.763739,268.133671 C464.221915,257.493007 464.512408,222.685828 463.763739,217.689475 C463.015071,212.693122 463.456714,209.293104 453.392199,208.681667 C443.327683,208.070229 436.903775,209.584097 428.24567,207.064126 C419.587565,204.544154 378.424122,189.156233 372.56821,186.395928 C366.712299,183.635622 363.29335,196.073563 363.027655,200.032003 C362.76196,203.990444 364.496652,241.913716 364.560418,246.01353 C364.624185,250.113343 364.171914,255.074353 369.073686,257.143109 C373.975458,259.211865 386.453663,263.775853 392.798453,266.294646 C399.143242,268.813439 406.73526,272.861783 409.962331,275.165794 C412.113712,276.701801 414.298808,278.398689 416.517618,280.256457" id="Path-12" stroke="url(#linearGradient-3)"></path>
                    <path d="M371.594154,186 C362.294722,182.33914 340.192244,172.260004 329.700818,169.252723 C302.327532,161.406397 268.507954,163.801777 299.108812,126.395366 C329.70967,88.9889551 468.447489,23.5758375 583.087396,35.4115218 C693.671658,46.828492 725.947544,54.7729078 779.234493,52.8532392 C796.870014,52.2179174 817.979387,47.1550917 845.271456,44.8853648 C955.028399,35.7575015 1152.37065,44.2004662 1278.65319,60.6662773 C1362.84155,71.6434847 1412.95715,83.4826994 1429,96.1839215" id="Path-13" stroke="url(#linearGradient-4)"></path>
                    <path d="M0,215 C31.6571928,218.198459 80.4878955,225.196201 112.647331,229.886918 C144.806766,234.577634 166.634861,238.084528 207.931927,233.381332 C249.228992,228.678136 279.356467,223.543486 303.478254,233.381332 C327.600041,243.219178 364.694622,256.181478 370,258" id="Path-13" stroke="url(#linearGradient-5)"></path>
                    <path d="M462.538558,215 C459.588465,199.120474 468.758305,188.838067 490.048077,184.15278 C521.982735,177.124848 601.997044,150.527432 630.480357,141.796925 C658.96367,133.066418 704.844888,117.649354 723.855023,105.650648 C742.865158,93.6519424 763.087123,66.1566755 766.580878,50.8933045 C767.932198,44.9897127 773.673738,43.2263677 780.934708,43.0177487 C792.446527,42.6869962 807.869532,47.0410621 816.368652,50.8933045 C825.608558,55.0813097 841.485674,59.9516408 864,65.5042978" id="Path-14" stroke="url(#linearGradient-6)"></path>
                </g>
            </g>
        </g>
    </g>
</svg>