<?xml version="1.0" encoding="UTF-8"?>
<svg width="93px" height="88px" viewBox="0 0 93 88" version="1.1" xmlns="http://www.w3.org/2000/svg" xmlns:xlink="http://www.w3.org/1999/xlink">
    <!-- Generator: Sketch 51.2 (57519) - http://www.bohemiancoding.com/sketch -->
    <title>daydream logo copy</title>
    <desc>Created with Sketch.</desc>
    <defs>
        <radialGradient cx="39.7467436%" cy="109.338984%" fx="39.7467436%" fy="109.338984%" r="67.5982911%" gradientTransform="translate(0.397467,1.093390),scale(0.997799,1.000000),rotate(-102.550725),translate(-0.397467,-1.093390)" id="radialGradient-1">
            <stop stop-color="#A19EA5" offset="0%"></stop>
            <stop stop-color="#FFFFFF" offset="100%"></stop>
        </radialGradient>
        <radialGradient cx="39.7467436%" cy="109.338984%" fx="39.7467436%" fy="109.338984%" r="67.6096752%" gradientTransform="translate(0.397467,1.093390),scale(0.994259,1.000000),rotate(-102.593987),translate(-0.397467,-1.093390)" id="radialGradient-2">
            <stop stop-color="#A19EA5" offset="0%"></stop>
            <stop stop-color="#FFFFFF" offset="100%"></stop>
        </radialGradient>
        <radialGradient cx="39.7467436%" cy="109.338984%" fx="39.7467436%" fy="109.338984%" r="67.6068416%" gradientTransform="translate(0.397467,1.093390),scale(0.995137,1.000000),rotate(-102.583234),translate(-0.397467,-1.093390)" id="radialGradient-3">
            <stop stop-color="#A19EA5" offset="0%"></stop>
            <stop stop-color="#FFFFFF" offset="100%"></stop>
        </radialGradient>
        <radialGradient cx="39.7467436%" cy="109.338984%" fx="39.7467436%" fy="109.338984%" r="67.6023144%" gradientTransform="translate(0.397467,1.093390),scale(0.996544,1.000000),rotate(-102.566033),translate(-0.397467,-1.093390)" id="radialGradient-4">
            <stop stop-color="#A19EA5" offset="0%"></stop>
            <stop stop-color="#FFFFFF" offset="100%"></stop>
        </radialGradient>
        <radialGradient cx="39.7467436%" cy="109.338984%" fx="39.7467436%" fy="109.338984%" r="67.7086586%" gradientTransform="translate(0.397467,1.093390),scale(1.000000,0.998181),rotate(-102.501914),translate(-0.397467,-1.093390)" id="radialGradient-5">
            <stop stop-color="#A19EA5" offset="0%"></stop>
            <stop stop-color="#FFFFFF" offset="100%"></stop>
        </radialGradient>
        <radialGradient cx="39.7467436%" cy="109.338984%" fx="39.7467436%" fy="109.338984%" r="67.618309%" gradientTransform="translate(0.397467,1.093390),scale(0.991599,1.000000),rotate(-102.626690),translate(-0.397467,-1.093390)" id="radialGradient-6">
            <stop stop-color="#A19EA5" offset="0%"></stop>
            <stop stop-color="#FFFFFF" offset="100%"></stop>
        </radialGradient>
    </defs>
    <g id="Page-1" stroke="none" stroke-width="1" fill="none" fill-rule="evenodd">
        <g id="Firefox_reality_design_v6-footer1" transform="translate(-674.000000, -972.000000)">
            <g id="Platforms" transform="translate(40.000000, 838.000000)">
                <g id="Group-20">
                    <g id="Group-24" transform="translate(505.000000, 20.000000)">
                        <g id="daydream-logo-copy" transform="translate(129.000000, 111.000000)">
                            <path d="M77.0009092,85.3241918 L77.0009092,74.8369895 L78.893467,74.8369895 L78.893467,76.292253 L78.9793986,76.292253 C79.2805029,75.7934814 79.7424713,75.3686019 80.3666785,75.0189829 C80.9901983,74.6693639 81.6095933,74.4948965 82.2262385,74.4948965 C83.8610015,74.4948965 84.9712379,75.1653987 85.5596975,76.5064032 C86.4197011,75.1653987 87.6454295,74.4948965 89.236883,74.4948965 C90.4839225,74.4948965 91.4229831,74.890356 92.0540648,75.6826433 C92.6844591,76.4742465 93,77.5484184 93,78.9037908 L93,85.3241918 L91.0215106,85.3241918 L91.0215106,79.2034642 C91.0215106,78.1477653 90.8283364,77.3985817 90.4413004,76.9559134 C90.0542644,76.5139292 89.4658048,76.292253 88.6779838,76.292253 C87.9039118,76.292253 87.2618308,76.6206622 86.7531157,77.2767966 C86.2437131,77.9336151 85.990043,78.6827987 85.990043,79.5243474 L85.990043,85.3241918 L84.0115536,85.3241918 L84.0115536,79.2034642 C84.0115536,78.1477653 83.8176919,77.3985817 83.430656,76.9559134 C83.04362,76.5139292 82.4558478,76.292253 81.6673393,76.292253 C80.8932674,76.292253 80.2511864,76.6206622 79.7424713,77.2767966 C79.2337562,77.9336151 78.9793986,78.6827987 78.9793986,79.5243474 L78.9793986,85.3241918 L77.0009092,85.3241918 Z M0,85.3243971 L0,70 L4.70973965,70 C7.075265,70 8.96713532,70.710185 10.3867255,72.1298709 C11.8063157,73.5495567 12.5157671,75.3934379 12.5157671,77.6621985 C12.5157671,79.9309592 11.8063157,81.7748403 10.3867255,83.1945262 C8.96713532,84.6148962 7.075265,85.3243971 4.70973965,85.3243971 L0,85.3243971 Z M1.97848938,83.4408331 L4.70973965,83.4408331 C6.48680534,83.4408331 7.89539628,82.9345355 8.93482503,81.9212561 C9.97425378,80.9079767 10.4939682,79.488975 10.4939682,77.6621985 C10.4939682,75.8504741 9.97425378,74.4342092 8.93482503,73.4140879 C7.89539628,72.3939667 6.48680534,71.8835639 4.70973965,71.8835639 L1.97848938,71.8835639 L1.97848938,83.4408331 Z M18.3862709,85.6669005 C17.0237393,85.6669005 15.8488823,85.1318671 14.8596376,84.0618003 C13.870393,82.9917335 13.3754269,81.6644127 13.3754269,80.0805222 C13.3754269,78.4966317 13.870393,77.1699951 14.8596376,76.0999283 C15.8488823,75.0298615 17.0237393,74.4948281 18.3862709,74.4948281 C19.1885284,74.4948281 19.908979,74.6658745 20.5476227,75.0086517 C21.1848916,75.3507447 21.6619839,75.7790451 21.9775247,76.2921846 L22.0634563,76.2921846 L22.0634563,74.836921 L23.9560141,74.836921 L23.9560141,85.3241234 L22.0634563,85.3241234 L22.0634563,83.8688598 L21.9775247,83.8688598 C21.6619839,84.3826835 21.1848916,84.8102997 20.5476227,85.1530769 C19.908979,85.4951699 19.1885284,85.6669005 18.3862709,85.6669005 Z M18.7086863,83.8688598 C19.6401849,83.8688598 20.4321307,83.5260827 21.0852109,82.8412125 C21.7369162,82.1563424 22.0634563,81.2361123 22.0634563,80.0805222 C22.0634563,78.9249321 21.7369162,78.004702 21.0852109,77.3198319 C20.4321307,76.6349617 19.6401849,76.2921846 18.7086863,76.2921846 C17.7909367,76.2921846 17.0024283,76.6383827 16.343161,77.3307788 C15.6838936,78.0224909 15.3539163,78.9393 15.3539163,80.0805222 C15.3539163,81.2224286 15.6838936,82.1392378 16.343161,82.8309498 C17.0024283,83.5233459 17.7909367,83.8688598 18.7086863,83.8688598 Z M35.3206413,74.8371263 L29.8368297,87.4213586 C29.0771943,89.2481351 27.9373974,90.1608392 26.4181266,90.1608392 C25.9155985,90.1608392 25.4288819,90.060948 24.9559143,89.8611657 L25.4501929,88.1493324 C25.7650463,88.2916431 26.0881492,88.3634827 26.4181266,88.3634827 C26.790726,88.3634827 27.0952677,88.2635915 27.3317515,88.0638092 C27.5682352,87.8633427 27.8012818,87.5212497 28.030891,87.0361619 L29.1273784,84.6606683 L24.7833636,74.8371263 L26.9337162,74.8371263 L30.0733135,82.3706979 L30.1166231,82.3706979 L33.1702887,74.8371263 L35.3206413,74.8371263 Z M40.1053821,85.6669005 C38.7428505,85.6669005 37.5679935,85.1318671 36.5787488,84.0618003 C35.5895041,82.9917335 35.0945381,81.6644127 35.0945381,80.0805222 C35.0945381,78.4966317 35.5895041,77.1699951 36.5787488,76.0999283 C37.5679935,75.0298615 38.7428505,74.4948281 40.1053821,74.4948281 C40.9076396,74.4948281 41.6280902,74.6658745 42.2667339,75.0086517 C42.9040027,75.3507447 43.381095,75.7790451 43.6966359,76.2921846 L43.7825675,76.2921846 L43.6966359,74.836921 L43.6966359,70.0004105 L45.6751253,70.0004105 L45.6751253,85.3241234 L43.7825675,85.3241234 L43.7825675,83.8688598 L43.6966359,83.8688598 C43.381095,84.3826835 42.9040027,84.8102997 42.2667339,85.1530769 C41.6280902,85.4951699 40.9076396,85.6669005 40.1053821,85.6669005 Z M40.4277975,83.8688598 C41.3592961,83.8688598 42.1512419,83.5260827 42.8043221,82.8412125 C43.4560274,82.1563424 43.7825675,81.2361123 43.7825675,80.0805222 C43.7825675,78.9249321 43.4560274,78.004702 42.8043221,77.3198319 C42.1512419,76.6349617 41.3592961,76.2921846 40.4277975,76.2921846 C39.5100479,76.2921846 38.7215395,76.6383827 38.0622721,77.3307788 C37.4030048,78.0224909 37.0730275,78.9393 37.0730275,80.0805222 C37.0730275,81.2224286 37.4030048,82.1392378 38.0622721,82.8309498 C38.7215395,83.5233459 39.5100479,83.8688598 40.4277975,83.8688598 Z M49.476121,74.8371263 L49.476121,76.5489596 L49.5620526,76.5489596 C49.7909744,75.9359289 50.2178826,75.454262 50.8414024,75.104643 C51.4649222,74.755024 52.1496252,74.5805566 52.8955116,74.5805566 C53.1099969,74.5805566 53.3471681,74.5949245 53.604963,74.6229761 L53.604963,76.5489596 C53.3327316,76.5209079 53.0673748,76.50654 52.80958,76.50654 C51.8629574,76.50654 51.0854482,76.7815828 50.4763649,77.3302999 C49.8665942,77.8797012 49.5620526,78.63299 49.5620526,79.5881136 L49.5620526,85.3243286 L47.5835632,85.3243286 L47.5835632,74.8371263 L49.476121,74.8371263 Z M58.9700514,85.6666953 C57.378598,85.6666953 56.0848117,85.1391879 55.0886925,84.0828048 C54.0918858,83.0271059 53.59417,81.6929433 53.59417,80.0810011 C53.59417,78.5538981 54.0781368,77.2416294 55.045383,76.1428268 C56.0133166,75.0440241 57.2493569,74.4946228 58.7548787,74.4946228 C60.3174591,74.4946228 61.5686233,75.0016046 62.5076839,76.0141998 C63.4460571,77.0274792 63.9162749,78.3828516 63.9162749,80.0810011 L63.8942764,80.4443039 L55.5726593,80.4443039 C55.6297179,81.500687 55.9844436,82.3353939 56.6368364,82.9484245 C57.2892292,83.5621393 58.0523019,83.8686546 58.9267419,83.8686546 C60.3463321,83.8686546 61.3067038,83.2693077 61.8085444,82.0712981 L63.571861,82.7985878 C63.2281346,83.6120849 62.6616734,84.2935341 61.8731649,84.8429354 C61.0846565,85.3916525 60.1167228,85.6666953 58.9700514,85.6666953 Z M61.8085444,78.8179939 C61.7652348,78.218647 61.4895662,77.6480359 60.9808511,77.1054764 C60.4714485,76.5636011 59.7152504,76.2926635 58.7122566,76.2926635 C57.9808068,76.2926635 57.3462878,76.5211816 56.8086996,76.9775336 C56.2711115,77.4338857 55.9019493,78.0476005 55.701213,78.8179939 L61.8085444,78.8179939 Z M69.7005034,85.6669005 C68.3379718,85.6669005 67.1631148,85.1318671 66.1738701,84.0618003 C65.1846254,82.9917335 64.6896594,81.6644127 64.6896594,80.0805222 C64.6896594,78.4966317 65.1846254,77.1699951 66.1738701,76.0999283 C67.1631148,75.0298615 68.3379718,74.4948281 69.7005034,74.4948281 C70.5027609,74.4948281 71.2232115,74.6658745 71.8618552,75.0086517 C72.4991241,75.3507447 72.9762163,75.7790451 73.2917572,76.2921846 L73.3776888,76.2921846 L73.3776888,74.836921 L75.2702466,74.836921 L75.2702466,85.3241234 L73.3776888,85.3241234 L73.3776888,83.8688598 L73.2917572,83.8688598 C72.9762163,84.3826835 72.4991241,84.8102997 71.8618552,85.1530769 C71.2232115,85.4951699 70.5027609,85.6669005 69.7005034,85.6669005 Z M70.0229188,83.8688598 C70.9544174,83.8688598 71.7463632,83.5260827 72.3994434,82.8412125 C73.0511487,82.1563424 73.3776888,81.2361123 73.3776888,80.0805222 C73.3776888,78.9249321 73.0511487,78.004702 72.3994434,77.3198319 C71.7463632,76.6349617 70.9544174,76.2921846 70.0229188,76.2921846 C69.1051692,76.2921846 68.3166608,76.6383827 67.6573934,77.3307788 C66.9981261,78.0224909 66.6681488,78.9393 66.6681488,80.0805222 C66.6681488,81.2224286 66.9981261,82.1392378 67.6573934,82.8309498 C68.3166608,83.5233459 69.1051692,83.8688598 70.0229188,83.8688598 Z" id="daydream" fill="#FFFFFF"></path>
                            <g id="Group-11" transform="translate(21.000000, 0.000000)">
                                <path d="M15.4118513,41.7959437 C12.501561,43.8529651 9.27356162,43.362485 7.17289117,41.5813091 C3.4131132,38.3933623 2.21144861,30.4829988 7.95557235,25.7884209 C4.77113568,24.2844474 3.67404353,21.1891714 4.1628043,18.4983297 C5.04410338,13.6463931 11.1993585,8.73971982 18.1399598,11.374307 C17.8250514,7.837879 19.965356,5.40219878 22.5526166,4.47556489 C27.2031635,2.8099598 34.5763827,5.49984326 35.745902,12.8558563 L35.4503942,13.0789348 L35.6217121,12.9518723 L35.6800659,12.9111406 C35.6799053,12.9096533 35.6797447,12.9081663 35.679584,12.9066796 C38.5898744,10.8496582 41.7886605,11.5756072 43.889331,13.356783 C47.6566288,16.5511061 48.7974816,24.4167314 43.0139983,29.1077616 C43.0120388,29.1104397 43.0091724,29.1127043 43.006305,29.114967 C46.2364865,30.6082383 47.3708961,33.6566326 46.8791114,36.3641223 C45.9977386,41.216465 39.8235736,46.128105 32.8822013,43.4920499 C33.1965026,47.0281218 31.0882858,49.5654215 28.5013987,50.4919216 C23.8508517,52.1575267 16.5124612,49.202386 15.342942,41.846373 L15.6049923,41.6558322 L15.4117385,41.7952359 Z M8.06171964,25.7904242 C8.13171282,25.7346811 8.21393816,25.6696664 8.29160318,25.610133 C8.21247153,25.6701761 8.13547579,25.7301437 8.06068517,25.7899524 L8.06171955,25.7904241 Z M32.8423803,43.4530388 C32.8434454,43.45345 32.8445103,43.4538609 32.845575,43.4542715 L32.7684939,42.6894188 L32.8423803,43.4530388 Z M18.1833849,11.4131277 C18.1816695,11.412469 18.1799546,11.4118111 18.1782401,11.4111538 L18.2949682,12.5347146 L18.1833849,11.4131277 Z M8.41420248,25.5183152 C8.56036031,25.41026 8.71330898,25.3020988 8.87264623,25.1943178 C8.71875245,25.2996487 8.56591996,25.4076508 8.41420248,25.5183152 Z" id="change-this-to-change-color" fill="#FFFFFF"></path>
                                <g id="white-gradients" opacity="0.649999976">
                                    <path d="M19.1688149,22.2697299 L18.0340436,11.3202763 C11.0467325,8.63625822 4.84331336,13.5862326 3.95642722,18.4808932 C3.46195028,21.2098758 4.58319,24.3519184 7.83468563,25.8543418 C10.1521663,23.9797097 14.6308703,21.9359521 19.1688149,22.2697299 Z" id="Path-2-Copy-11" fill="url(#radialGradient-1)"></path>
                                    <path d="M18.1436273,39.062282 L17.0114581,28.1252489 C10.024147,25.4412308 3.80097968,30.4337148 2.91409354,35.3283755 C2.4196166,38.057358 3.61432928,41.1196283 6.86582491,42.6220518 C9.17930726,40.7398914 13.3966358,38.8232752 18.1436273,39.062282 Z" id="Path-2-Copy-6" fill="url(#radialGradient-2)" transform="translate(10.475143, 34.997588) rotate(300.000000) translate(-10.475143, -34.997588) "></path>
                                    <path d="M32.0626944,48.3387696 L30.9905507,37.4213911 C24.0032397,34.737373 17.7461102,39.6495243 16.8592241,44.544185 C16.3647471,47.2731675 17.5197458,50.3975985 20.7712414,51.900022 C23.0662366,50.0282558 27.4630463,48.0652166 32.0626944,48.3387696 Z" id="Path-2-Copy-7" fill="url(#radialGradient-3)" transform="translate(24.406102, 44.280663) rotate(240.000000) translate(-24.406102, -44.280663) "></path>
                                    <path d="M46.9800939,40.8386527 L45.9081083,29.9245787 C38.9207972,27.2405606 32.6992829,32.1951337 31.8123967,37.0897943 C31.3179198,39.8187769 32.4599481,42.8916663 35.7114437,44.3940897 C37.9583598,42.5353227 42.1530066,40.5964929 46.9800939,40.8386527 Z" id="Path-2-Copy-8" fill="url(#radialGradient-4)" transform="translate(39.341007, 36.781403) rotate(180.000000) translate(-39.341007, -36.781403) "></path>
                                    <path d="M47.9915091,23.9960372 L46.9181206,13.0674741 C39.9308095,10.383456 33.69898,15.3609271 32.8120939,20.2555878 C32.3176169,22.9845703 33.2927938,26.1399292 36.5442894,27.6423527 C37.6814325,26.8090107 39.1120462,25.8629464 40.8066858,25.1997889 C42.9035771,24.3792198 45.3197392,23.8778237 47.9915091,23.9960372 Z" id="Path-2-Copy-9" fill="url(#radialGradient-5)" transform="translate(40.341211, 19.978113) rotate(120.000000) translate(-40.341211, -19.978113) "></path>
                                    <path d="M34.2539805,15.0343569 L33.0659275,3.88515545 C26.0786164,1.20113734 19.7984045,6.23960874 18.9115183,11.1342694 C18.4170414,13.8632519 19.4666525,16.9638893 22.7181482,18.4663128 C24.9810782,16.6128448 29.4689466,14.7591724 34.2539805,15.0343569 Z" id="Path-2-Copy-10" fill="url(#radialGradient-6)" transform="translate(26.524653, 10.801917) rotate(60.000000) translate(-26.524653, -10.801917) "></path>
                                </g>
                            </g>
                        </g>
                    </g>
                </g>
            </g>
        </g>
    </g>
</svg>