<?xml version="1.0" encoding="UTF-8"?>
<!--
	from https://commons.wikimedia.org/wiki/File:Microsoft_Store.svg
	with modified colors
-->

<!-- Generator: Adobe Illustrator 23.0.1, SVG Export Plug-In . SVG Version: 6.00 Build 0)  -->
<!DOCTYPE svg PUBLIC "-//W3C//DTD SVG 1.1//EN" "http://www.w3.org/Graphics/SVG/1.1/DTD/svg11.dtd">
<svg version="1.1" id="Livello_1" xmlns:x="http://ns.adobe.com/Extensibility/1.0/" xmlns:i="http://ns.adobe.com/AdobeIllustrator/10.0/" xmlns:graph="http://ns.adobe.com/Graphs/1.0/" xmlns="http://www.w3.org/2000/svg" xmlns:xlink="http://www.w3.org/1999/xlink" x="0px" y="0px" viewBox="0 0 1794.1 1782.3" style="enable-background:new 0 0 1794.1 1782.3;" xml:space="preserve">
<style type="text/css">
	.st0{fill:#E8E8E8;}
	.st1{fill:#000000;}
	.st2{fill:#000000;}
	.st3{fill:#000000;}
	.st4{fill:#000000;}
</style>
<metadata>
	<sfw xmlns="http://ns.adobe.com/SaveForWeb/1.0/">
		<slices/>
		<sliceSourceBounds bottomLeftOrigin="true" height="1782.3" width="1794.1" x="-865.1" y="-859.1"/>
	</sfw>
</metadata>
<path class="st0" d="M1380.2,451.5v-40c0-108.6-51.7-210.6-139.2-274.9c44.5,59,68.5,130.9,68.4,204.8v110.1h-71V341.4  C1238.5,152.9,1085.6,0,897.1,0S555.6,152.9,555.6,341.4v110.1H0v1200.7c0,71.8,58.2,130.1,130.1,130.1c0,0,0,0,0,0h1534  c71.8,0,130.1-58.2,130.1-130.1c0,0,0,0,0,0V451.5H1380.2z M626.4,341.4C626.3,192,747.4,70.8,896.9,70.8c0.1,0,0.1,0,0.2,0  c148.1,3.2,267.4,122.5,270.7,270.7v110.1H768.1v-40c-0.1-149.4,121-270.6,270.5-270.7c0.1,0,0.1,0,0.2,0c12.5,0,24.9,0.9,37.2,2.8  c-33.9-15.6-70.7-23.7-108-23.8c-87.5-0.1-169.7,42.3-220.4,113.6c-32.9,53.6-50.3,115.2-50.2,178v40h-71V341.4z"/>
<g>
	<rect x="520.9" y="740.5" class="st1" width="347.2" height="347.3"/>
	<rect x="926" y="740.5" class="st2" width="347.2" height="347.3"/>
	<rect x="520.9" y="1145.6" class="st3" width="347.2" height="347.2"/>
	<rect x="926" y="1145.6" class="st4" width="347.2" height="347.2"/>
</g>
</svg>