<?xml version="1.0" encoding="UTF-8"?>
<svg width="98px" height="80px" viewBox="0 0 98 80" version="1.1" xmlns="http://www.w3.org/2000/svg" xmlns:xlink="http://www.w3.org/1999/xlink">
    <!-- Generator: Sketch 51.2 (57519) - http://www.bohemiancoding.com/sketch -->
    <title>oculus-logo</title>
    <desc>Created with Sketch.</desc>
    <defs></defs>
    <g id="Page-1" stroke="none" stroke-width="1" fill="#ffffff" fill-rule="evenodd">
        <g id="Firefox_reality_design_v6-footer1" transform="translate(-320.000000, -975.000000)" fill="#FFFFFF" fill-rule="nonzero">
            <g id="Platforms" transform="translate(40.000000, 838.000000)">
                <g id="Group-20">
                    <g id="Group-23" transform="translate(140.000000, 0.000000)">
                        <g id="oculus-logo" transform="translate(140.000000, 137.000000)">
                            <path d="M32.7823056,0.129165405 C26.1302042,0.887352622 20.4230035,4.38765028 16.8575779,9.88450761 C15.4969208,11.9695225 14.3252439,14.8759068 13.7960994,17.4916527 C13.4685338,19.1217552 13.4685338,23.9488805 13.7960994,25.578983 C15.1441579,32.263667 19.3395173,37.7731608 25.2860928,40.7300909 C27.7806309,41.9684634 30.0861888,42.6381954 32.9334898,42.9414703 C33.7272064,43.0299255 39.4092097,43.0804713 49.0220003,43.0804713 C61.5702826,43.0804713 64.1152153,43.0551984 65.375083,42.8909245 C70.603534,42.208556 74.8618868,40.0982682 78.3895163,36.4210602 C80.002147,34.7404119 81.0352385,33.2998562 82.0431327,31.3285694 C83.668362,28.1315466 84.3486906,25.2377988 84.3486906,21.5353179 C84.3486906,17.8328369 83.668362,14.9390891 82.0431327,11.7420663 C81.0352385,9.77077952 80.002147,8.33022381 78.3895163,6.64957548 C74.8618868,2.97236747 70.603534,0.862079715 65.375083,0.179711219 C64.1152153,0.0154373219 61.6206773,-0.00983558541 48.8078228,0.00280086822 C40.5178933,0.0154373219 33.2988514,0.0659831364 32.7823056,0.129165405 Z M64.8288836,14.2563601 C67.4228376,14.9910461 69.5416615,17.1149568 70.170888,19.6262475 C70.4148737,20.6414501 70.4148737,22.351265 70.170888,23.3664676 C69.5288201,25.917832 67.3971549,28.0417427 64.7646768,28.736355 C63.94283,28.9634398 62.7999492,28.9767977 48.9184427,28.9767977 C34.959888,28.9767977 33.9068968,28.9634398 33.123574,28.736355 C30.568144,28.0150268 28.8088782,26.4254333 27.8971419,24.0210061 C27.5889493,23.1928145 27.5504252,22.9256559 27.5504252,21.4963575 C27.5504252,20.0670591 27.5889493,19.7999005 27.8971419,18.9717089 C28.911609,16.2867652 31.0817983,14.5368766 33.9582622,14.0960649 C34.382027,14.0292753 41.3163596,13.9892015 49.3678902,14.0025594 C62.7999492,14.0292753 64.0712436,14.0426332 64.8288836,14.2563601 Z M56.8198555,66.3288458 L56.8198555,78.9571708 L60.7369225,78.9571708 L60.7369225,53.7005208 L56.8198555,53.7005208 L56.8198555,66.3288458 Z M89.1636377,61.9622517 C87.3394036,62.3663581 85.884493,63.43275 85.1570377,64.9144734 C84.7541394,65.7226862 84.7429478,65.8012625 84.7429478,66.9350054 C84.7429478,67.9901722 84.7765226,68.1922254 85.0451215,68.7759346 C85.7054271,70.1790818 87.0819964,71.0658709 89.5105779,71.6608053 C92.6442316,72.4241174 93.3493037,72.7047468 93.7633936,73.3782575 C94.4684657,74.545676 93.3604953,75.6794189 91.3907701,75.7916707 C89.8239433,75.8814721 88.1004338,75.3987895 86.7238645,74.5007753 C86.3769243,74.2650465 86.0299841,74.040543 85.9516427,73.9844171 C85.8621098,73.9282912 85.4815947,74.354848 84.8100975,75.241637 C84.2505165,75.9824987 83.7804684,76.633559 83.7692768,76.6896849 C83.6685522,77.071341 86.5447986,78.654091 88.1004338,79.091873 C89.3091288,79.4174031 92.1853752,79.4510787 93.3045372,79.1479989 C95.1287713,78.654091 96.4829573,77.6213747 97.1880294,76.1733268 C97.6021193,75.3314384 97.6133109,75.2977629 97.6133109,74.0180926 C97.6133109,72.7833231 97.6021193,72.6935216 97.2439875,71.9751103 C96.4605741,70.3699098 94.9944718,69.4831208 91.8272433,68.6861332 C90.7416562,68.4167289 89.656069,68.0911988 89.4098534,67.9677218 C88.4585657,67.473814 88.2235416,66.6992767 88.8278891,66.0033157 C89.2643623,65.5094079 89.9918176,65.262454 91.0214467,65.262454 C92.1406087,65.262454 92.8456808,65.4308316 94.0096092,65.9696402 C94.5803819,66.2278192 95.0280467,66.3737466 95.0840048,66.3176207 C95.3973701,65.958415 96.8858556,63.814406 96.8858556,63.7133794 C96.8858556,63.5225514 95.6771607,62.8153652 94.7594478,62.4673847 C93.0359383,61.793874 90.8311891,61.603046 89.1636377,61.9622517 Z M26.1212414,62.299007 C22.8868632,63.0174184 20.7492638,65.0940763 19.8763174,68.3493778 C19.6748682,69.056564 19.6301017,69.561697 19.6301017,70.7627911 C19.6189101,72.525144 19.797976,73.3670323 20.44709,74.7477292 C21.2640783,76.5100821 22.4056235,77.6887258 24.0843666,78.5081637 C25.5057023,79.2041248 26.1883911,79.3388269 28.0573917,79.3500521 C29.9711588,79.3500521 30.642656,79.2041248 32.1423331,78.463263 C33.1271956,77.9693552 34.324699,77.0488906 34.324699,76.7907115 C34.324699,76.7121353 33.7315431,76.061075 33.0040878,75.3314384 L31.672285,73.9956423 L31.0231711,74.4558746 C28.8631884,75.9712736 25.7407263,75.5447168 24.3977319,73.53541 C23.8045761,72.6486209 23.5583604,71.8404081 23.5471688,70.7627911 C23.5247856,68.5851066 24.5879895,67.0023565 26.4905649,66.3737466 C27.8223677,65.9247394 29.6466018,66.1267926 30.8105303,66.845204 C31.0007878,66.9574558 31.2134286,67.0584824 31.2693867,67.0584824 C31.3924945,67.0584824 33.6532018,64.1960621 33.6532018,64.0501348 C33.6532018,63.7807305 31.5603688,62.6918882 30.46359,62.3888084 C29.5011107,62.1306293 27.0949124,62.0745035 26.1212414,62.299007 Z M6.25611566,62.4449343 C5.80845086,62.5571861 5.00265421,62.8714911 4.46545644,63.1296702 C3.67085141,63.5225514 3.30152794,63.8031808 2.48453967,64.633844 C1.8354257,65.2849043 1.34299442,65.9135143 1.10797039,66.3625214 C-0.369323465,69.1688158 -0.369323465,72.3567663 1.10797039,75.1630608 C1.34299442,75.6120679 1.8354257,76.2406778 2.48453967,76.8917381 C3.30152794,77.7224013 3.67085141,77.9918056 4.4430732,78.3734616 C5.774876,79.0357471 6.88284639,79.2939262 8.38252349,79.2939262 C9.92696707,79.2939262 10.9342129,79.0694226 12.2212492,78.4520378 C13.877609,77.6550502 15.0974956,76.4315058 15.9144839,74.7477292 C16.6083643,73.344582 16.7986218,72.4690181 16.7986218,70.7627911 C16.7986218,69.056564 16.6083643,68.1810002 15.9144839,66.777853 C15.0974956,65.0828511 13.8999922,63.8817571 12.2212492,63.0735443 C11.6728598,62.80414 10.8558715,62.5122854 10.4082067,62.4112588 C9.31142796,62.1643049 7.31931958,62.1867552 6.25611566,62.4449343 Z M10.4529732,66.6094753 C13.7992676,68.169775 13.7545012,73.3558071 10.3970151,74.9497824 C9.69194305,75.2865377 9.56883523,75.3089881 8.41609835,75.3089881 C7.2745531,75.3089881 7.12906203,75.2865377 6.45756483,74.9610076 C4.15209108,73.8609401 3.23437822,70.9311687 4.43188158,68.5402059 C5.51746873,66.3849717 8.16988271,65.5318582 10.4529732,66.6094753 Z M36.7085141,67.9228211 C36.7420889,72.5475943 36.7756638,73.4007078 36.9435381,74.0742185 C37.6038437,76.7233605 39.450461,78.5642896 42.0021504,79.1367737 C43.1660789,79.3949528 45.1581873,79.3051514 46.1878164,78.9571708 C47.0383795,78.6653162 47.7770264,78.3061105 48.3030326,77.9020041 C48.5156733,77.7448516 48.7283141,77.643825 48.7730806,77.6775006 C48.8290387,77.7111761 48.8738052,78.0142559 48.8738052,78.3510112 L48.8738052,78.9571708 L52.3432074,78.9571708 L52.3432074,62.5684113 L48.4261404,62.5684113 L48.4261404,67.0248069 C48.4261404,69.5055712 48.3701823,71.8179578 48.3142242,72.2220642 C47.967284,74.3997487 46.5123733,75.6569686 44.3635823,75.6345182 C43.6025521,75.623293 43.4011029,75.5783923 42.751989,75.241637 C41.5209108,74.613027 40.9165633,73.5803107 40.7039225,71.6832556 C40.6479644,71.1444471 40.5920063,68.8769612 40.5920063,66.6319256 L40.5920063,62.5684113 L36.652556,62.5684113 L36.7085141,67.9228211 Z M64.9113969,67.5299399 C64.9449717,70.313784 65.0345047,72.8618993 65.1016544,73.3333568 C65.5605108,76.3417044 67.3175952,78.3622364 70.093117,79.0694226 C72.2530997,79.6306815 74.9390885,79.1479989 76.5394902,77.9132293 L77.0654963,77.5091229 L77.1326461,78.2387595 L77.2109874,78.9571708 L80.6580064,78.9571708 L80.6580064,62.5684113 L76.7409394,62.5684113 L76.7409394,66.6319256 C76.7409394,72.4241174 76.6178315,73.2884561 75.6441606,74.3660731 C74.6816813,75.4436902 73.1931958,75.8926973 71.8166265,75.5447168 C70.5183986,75.2079615 69.6678354,74.3885235 69.2201706,73.030277 C68.9851466,72.3118656 68.973955,72.0761369 68.9291885,67.4176881 L68.8956136,62.5684113 L64.8442471,62.5684113 L64.9113969,67.5299399 Z" id="Shape"></path>
                        </g>
                    </g>
                </g>
            </g>
        </g>
    </g>
</svg>