<svg xmlns="http://www.w3.org/2000/svg" xmlns:xlink="http://www.w3.org/1999/xlink" viewBox="0 0 494.75 510.66"><defs><style>.cls-1{fill:url(#radial-gradient);}.cls-2{fill:url(#linear-gradient);}.cls-3{fill:url(#radial-gradient-2);}.cls-4{fill:url(#radial-gradient-3);}.cls-5{fill:url(#radial-gradient-4);}.cls-6{fill:url(#radial-gradient-5);}.cls-7{fill:url(#radial-gradient-6);}.cls-8{fill:url(#radial-gradient-7);}.cls-9{fill:url(#linear-gradient-2);}.cls-10{fill:url(#linear-gradient-3);}.cls-11{fill:url(#linear-gradient-4);}.cls-12{fill:url(#linear-gradient-5);}.cls-13{fill:url(#linear-gradient-6);}.cls-14{fill:url(#linear-gradient-7);}</style><radialGradient id="radial-gradient" cx="-8175.21" cy="-9537.79" r="410.62" gradientTransform="translate(10380.02 11811.08) scale(1.23)" gradientUnits="userSpaceOnUse"><stop offset="0.07" stop-color="#c25bfa"/><stop offset="0.26" stop-color="#9400ff"/><stop offset="0.43" stop-color="#4600a4"/></radialGradient><linearGradient id="linear-gradient" x1="280.72" y1="-557.69" x2="181.37" y2="-882.68" gradientTransform="translate(0 936.08)" gradientUnits="userSpaceOnUse"><stop offset="0" stop-color="#000f43" stop-opacity="0.4"/><stop offset="0.48" stop-color="#001962" stop-opacity="0.17"/><stop offset="1" stop-color="#002079" stop-opacity="0"/></linearGradient><radialGradient id="radial-gradient-2" cx="314.04" cy="468.59" r="58.66" gradientUnits="userSpaceOnUse"><stop offset="0" stop-color="#7d1b71"/><stop offset="0.45" stop-color="#a60022"/><stop offset="1" stop-color="#a4000f"/></radialGradient><radialGradient id="radial-gradient-3" cx="-14308.88" cy="-9809.97" fx="-14323.809567732564" r="233.99" gradientTransform="matrix(0.76, 0.03, -0.05, 1.12, 10870.64, 11574.33)" gradientUnits="userSpaceOnUse"><stop offset="0.1" stop-color="#f75fcc"/><stop offset="0.17" stop-color="#f731cc"/><stop offset="0.28" stop-color="#ff5b7c"/><stop offset="0.43" stop-color="#ff5b7c"/><stop offset="0.77" stop-color="#ed2062"/><stop offset="0.87" stop-color="#e0255a"/><stop offset="0.95" stop-color="#cc2477"/><stop offset="1" stop-color="#c42482"/></radialGradient><radialGradient id="radial-gradient-4" cx="-8802.21" cy="-8451.24" r="138.51" gradientTransform="translate(10225.29 11706.08) rotate(5.62) scale(1.23)" gradientUnits="userSpaceOnUse"><stop offset="0" stop-color="#fc139c"/><stop offset="0.39" stop-color="#dc0555"/><stop offset="1" stop-color="#9c2455"/></radialGradient><radialGradient id="radial-gradient-5" cx="-8814.75" cy="-8584.05" r="231.29" gradientTransform="translate(10225.29 11706.08) rotate(5.62) scale(1.23)" gradientUnits="userSpaceOnUse"><stop offset="0" stop-color="#ff5b7c"/><stop offset="0.16" stop-color="#e23555"/><stop offset="0.32" stop-color="#ef1b61"/><stop offset="0.47" stop-color="#e90062"/><stop offset="0.62" stop-color="#e90062"/><stop offset="0.76" stop-color="#e90062"/><stop offset="0.89" stop-color="#e90062"/><stop offset="1" stop-color="#e90062"/></radialGradient><radialGradient id="radial-gradient-6" cx="371.16" cy="-731.58" fx="385.67847641168447" fy="-738.7609218230169" r="405.92" gradientTransform="translate(0 936.08)" gradientUnits="userSpaceOnUse"><stop offset="0.16" stop-color="#ff87f4"/><stop offset="0.23" stop-color="#ff64f4"/><stop offset="0.37" stop-color="#ff89e9"/><stop offset="0.54" stop-color="#ff56d9"/><stop offset="0.76" stop-color="#ef1b4a"/><stop offset="0.8" stop-color="#e61b3c"/><stop offset="0.84" stop-color="#d11b38"/><stop offset="0.89" stop-color="#b80032"/><stop offset="0.94" stop-color="#960001"/></radialGradient><radialGradient id="radial-gradient-7" cx="347.88" cy="-919.84" r="462.63" gradientTransform="translate(0 936.08)" gradientUnits="userSpaceOnUse"><stop offset="0.28" stop-color="#ff8af4"/><stop offset="0.4" stop-color="#ff40e9"/><stop offset="0.63" stop-color="#ef1b71"/><stop offset="0.86" stop-color="#ff47a6"/><stop offset="0.93" stop-color="#ef3ea0"/><stop offset="0.99" stop-color="#ce1250"/></radialGradient><linearGradient id="linear-gradient-2" x1="-9158.07" y1="-8538.95" x2="-8998.73" y2="-8579.57" gradientTransform="translate(10225.29 11706.08) rotate(5.62) scale(1.23)" gradientUnits="userSpaceOnUse"><stop offset="0" stop-color="#a4000f" stop-opacity="0.5"/><stop offset="0.45" stop-color="#cf0092" stop-opacity="0.5"/><stop offset="0.53" stop-color="#d81493" stop-opacity="0.51"/><stop offset="0.74" stop-color="#ff6ef4" stop-opacity="0.87"/><stop offset="0.84" stop-color="#ffa2f4" stop-opacity="0.96"/><stop offset="1" stop-color="#ffa2f4"/></linearGradient><linearGradient id="linear-gradient-3" x1="463.78" y1="-2339.26" x2="435.47" y2="-2411.84" gradientTransform="translate(-617.81 2406.82) rotate(5.77)" gradientUnits="userSpaceOnUse"><stop offset="0" stop-color="#521580" stop-opacity="0.6"/><stop offset="1" stop-color="#c42482" stop-opacity="0"/></linearGradient><linearGradient id="linear-gradient-4" x1="191.17" y1="-629.65" x2="240.01" y2="-574.18" gradientTransform="translate(-138.68 846.41) rotate(5.77)" gradientUnits="userSpaceOnUse"><stop offset="0.01" stop-color="#891551" stop-opacity="0.5"/><stop offset="0.48" stop-color="#ff2779" stop-opacity="0.5"/><stop offset="1" stop-color="#ff272d" stop-opacity="0"/></linearGradient><linearGradient id="linear-gradient-5" x1="285.04" y1="-533.98" x2="285.08" y2="-572.79" gradientTransform="translate(-138.68 846.41) rotate(5.77)" gradientUnits="userSpaceOnUse"><stop offset="0" stop-color="#c42482"/><stop offset="0.08" stop-color="#c42482" stop-opacity="0.81"/><stop offset="0.21" stop-color="#c42482" stop-opacity="0.57"/><stop offset="0.33" stop-color="#c42482" stop-opacity="0.36"/><stop offset="0.45" stop-color="#c42482" stop-opacity="0.2"/><stop offset="0.56" stop-color="#c42482" stop-opacity="0.09"/><stop offset="0.67" stop-color="#c42482" stop-opacity="0.02"/><stop offset="0.77" stop-color="#c42482" stop-opacity="0"/></linearGradient><linearGradient id="linear-gradient-6" x1="322" y1="-917.32" x2="480.63" y2="-562.62" gradientTransform="translate(0 936.08)" gradientUnits="userSpaceOnUse"><stop offset="0.02" stop-color="#ffd9f4"/><stop offset="0.23" stop-color="#ffa2f4"/><stop offset="0.44" stop-color="#ff64f4"/><stop offset="0.63" stop-color="#ff40b7"/><stop offset="0.76" stop-color="#ff1aa8"/><stop offset="0.88" stop-color="#ff1a87"/><stop offset="0.92" stop-color="#ff1a72"/><stop offset="0.95" stop-color="#ff1a89"/><stop offset="1" stop-color="#ef1b71"/></linearGradient><linearGradient id="linear-gradient-7" x1="353.35" y1="-713.33" x2="278.22" y2="-511.59" gradientTransform="translate(0 936.08)" gradientUnits="userSpaceOnUse"><stop offset="0" stop-color="#ef1b71"/><stop offset="0.04" stop-color="#ef1b71" stop-opacity="0.86"/><stop offset="0.08" stop-color="#ef1b71" stop-opacity="0.8"/><stop offset="0.13" stop-color="#ef1b71" stop-opacity="0.7"/><stop offset="0.18" stop-color="#ef1b71" stop-opacity="0.6"/><stop offset="0.23" stop-color="#ef1b71" stop-opacity="0.6"/><stop offset="0.28" stop-color="#ef1b71" stop-opacity="0.6"/><stop offset="0.39" stop-color="#ff1883" stop-opacity="0.48"/><stop offset="0.52" stop-color="#ff1a94" stop-opacity="0.42"/><stop offset="0.68" stop-color="#ef1b71" stop-opacity="0.31"/><stop offset="0.84" stop-color="#ed2075" stop-opacity="0.17"/><stop offset="1" stop-color="#ff8e7f" stop-opacity="0"/></linearGradient></defs><title>Asset 1</title><g id="Layer_2" data-name="Layer 2"><g id="Layer_1-2" data-name="Layer 1"><path id="_Path_" data-name=" Path " class="cls-1" d="M248.12,505.78c127.25,0,230.36-103.64,230.36-231.46S375.37,42.87,248.22,42.87,18,146.5,18,274.32C17.75,402.25,121,505.78,248.12,505.78Z"/><path class="cls-2" d="M420.72,417a132,132,0,0,1-15.62,9.44A358.55,358.55,0,0,0,425,393.79a130.18,130.18,0,0,0,13.08-16.45c1.76-2.8,3.78-6.28,5.91-10.28,12.92-23.3,27.2-61,27.61-99.74v-3a135.84,135.84,0,0,0-3-29c.11.73.21,1.51.31,2.23-.1-.57-.2-1.14-.31-1.71.21,1,.37,2.08.52,3.11,2.65,22.42.78,44.32-8.66,60.46-.16.26-.32.47-.47.68,4.88-24.5,6.54-51.59,1.09-78.68,0,0-2.18-13.18-18.37-53.14-9.34-23-25.85-41.88-40.48-55.63-12.82-15.88-24.45-26.47-30.88-33.27-13.39-14.11-19-24.7-21.33-31.6-2-1-27.56-25.85-29.58-26.78-11.16,17.33-46.29,71.46-29.58,122,7.58,22.94,26.73,46.7,46.76,60,.88,1,11.93,13,17.18,40.07,5.44,27.92,2.59,49.76-8.57,82-13.13,28.29-46.7,56.26-78.21,59.11-67.3,6.13-91.9-33.78-91.9-33.78,24,9.6,50.65,7.57,66.79-2.34,16.29-10.07,26.15-17.54,34.14-14.63s14.17-5.61,8.52-14.43a40.79,40.79,0,0,0-41.21-18c-16.3,2.65-31.24,15.57-52.62,3.07a33.37,33.37,0,0,1-4-2.65c-1.4-.93,4.57,1.4,3.17.36A102.23,102.23,0,0,1,177.49,293c-.32-.32,3.21,1.14,2.9.83-20-16.45-17.49-27.56-16.86-34.57.51-5.6,4.15-12.71,10.27-15.62,3,1.61,4.78,2.86,4.78,2.86s-1.25-2.6-1.92-3.95c.25-.1.46-.05.72-.15A109.21,109.21,0,0,1,188,248.48a15.41,15.41,0,0,1,4.83,4.88s1-.52.25-2.8a14.16,14.16,0,0,0-5-6.86h.21a42.38,42.38,0,0,1,6.18,4.26c1-3.74,2.85-7.63,2.49-14.58-.26-4.88-.16-6.18-1-8-.78-1.61.42-2.28,1.77-.57a17.42,17.42,0,0,0-1.15-3.84v-.1c1.66-5.81,35.4-21,37.89-22.78a34.56,34.56,0,0,0,9.91-10.8c1.87-3,3.27-7.21,3.63-13.54.21-4.57-2-7.63-36.07-11.21-9.34-.94-14.79-7.68-17.9-13.91-.57-1.35-1.14-2.54-1.71-3.79a32.28,32.28,0,0,1-1.35-4.36c5.6-16,14.94-29.58,28.75-39.8.78-.68-3,.15-2.23-.52s6.59-3.12,7.68-3.63c1.3-.63-5.66-3.59-11.78-2.86-6.28.73-7.58,1.45-11,2.86,1.4-1.41,5.81-3.17,4.77-3.17-6.74,1-15.15,5-22.31,9.39a6.81,6.81,0,0,1,.41-2.28c-3.32,1.4-11.57,7.16-14,12a24.06,24.06,0,0,0,.16-2.81,44.29,44.29,0,0,0-6.85,7.17l-.11.1c-19.41-7.78-36.43-8.3-50.91-4.83-3.16-3.16-4.72-.83-11.88-16.65-.47-.94.36.93,0,0-1.19-3.07.73,4.1,0,0-12.09,9.54-28,20.34-35.6,28-.11.31,8.92-2.55,0,0-3.12.88-2.91,2.75-3.38,19.46-.1,1.24,0,2.7-.1,3.84-6.12,7.78-10.27,14.32-11.83,17.75C43,178,34.3,199.18,25.84,232.7a174.55,174.55,0,0,1,13.39-26.1c-7,17.8-13.75,45.72-15.1,88.69A255,255,0,0,1,30.62,269a245.83,245.83,0,0,0,18,104.36,255.18,255.18,0,0,0,26.46,49.51A234.2,234.2,0,0,0,420.72,417Z"/><path class="cls-3" d="M242.06,502.7C349,514.64,401.5,457,386.33,445.1,326.65,398.39,220.32,500.27,242.06,502.7Z"/><path class="cls-4" d="M399.76,47.54c-12.46,14.48-18.22,47-5.61,80.07s31.92,25.85,44,59.53c15.88,44.42,8.51,104.1,8.51,104.1s19.1,55.32,32.43-3.42C508.48,177.33,399.76,74.68,399.76,47.54Z"/><path class="cls-5" d="M369,449.78c84.54-9.8,122-96.89,73.9-98.6C399.5,349.78,329,454.4,369,449.78Z"/><path class="cls-6" d="M449,333.38c58.12-33.83,43-107,43-107S469.56,252.48,454.3,294C439.25,335.25,414,353.83,449,333.38Z"/><path class="cls-7" d="M455,364.42c2-2.81,4.62-11.68,7-15.68,14.33-23.09,14.43-41.51,14.43-41.93,8.67-43.18,7.89-60.82,2.54-93.41-4.25-26.26-23-63.89-39.23-82-16.71-18.68-4.93-12.56-21.12-26.21-14.17-15.72-27.92-31.29-35.4-37.57-54.12-45.25-52.88-54.85-51.84-56.51-.16.2-.42.46-.78.83-.62-2.55-1.09-4.73-1.09-4.73S300,36.79,293.73,86.1c-4.05,32.17,8,65.75,25.43,87.18a197.19,197.19,0,0,0,30.62,30.1h0c13.18,18.94,20.45,42.3,20.45,67.41A114.07,114.07,0,0,1,230.78,381.85C201.1,376.2,183.92,361.2,175.36,351a54.81,54.81,0,0,1-7-10.07c26.62,9.55,56.05,7.52,74-2.34,18.06-10,29-17.38,37.78-14.48s15.68-5.55,9.45-14.27-22-21.27-45.62-17.8c-18.06,2.65-34.61,15.47-58.23,3a48.48,48.48,0,0,1-4.41-2.59c-1.55-.94,5.09,1.4,3.53.36C180.18,290.62,172,285.74,170,284c-.36-.32,3.58,1.14,3.22.83-22.11-16.35-19.36-27.35-18.68-34.25.57-5.56,4.56-12.62,11.36-15.52,3.27,1.61,5.29,2.8,5.29,2.8s-1.4-2.54-2.12-3.89c.26-.11.51,0,.77-.16a125.24,125.24,0,0,1,11.73,6c4.05,2.6,5.35,4.88,5.35,4.88s1.09-.52.26-2.75c-.31-.93-1.51-3.84-5.56-6.8h.26a43.82,43.82,0,0,1,6.8,4.26c1.14-3.69,3.17-7.58,2.7-14.48-.26-4.88-.15-6.13-1.09-8-.83-1.61.47-2.24,2-.57a16.18,16.18,0,0,0-1.24-3.79v-.11c1.87-5.76,39.18-20.81,41.93-22.57a36.53,36.53,0,0,0,11-10.69c2.08-3,3.64-7.11,4.05-13.44.1-2.86-.73-5.09-10.64-7.27-5.91-1.3-15.1-2.54-29.27-3.89-10.33-.94-16.4-7.63-19.82-13.81-.62-1.34-1.3-2.54-1.92-3.73a25.37,25.37,0,0,1-1.46-4.36,82.37,82.37,0,0,1,31.82-39.49c.83-.68-3.32.15-2.49-.52s7.31-3.07,8.51-3.58c1.45-.63-6.23-3.53-13.08-2.86s-8.41,1.45-12.09,2.86c1.55-1.35,6.43-3.17,5.29-3.17-7.47,1-16.76,4.93-24.7,9.34a5.36,5.36,0,0,1,.46-2.23c-3.68,1.4-12.76,7.11-15.41,11.94a24.06,24.06,0,0,0,.16-2.81,45.24,45.24,0,0,0-7.58,7.11l-.16.11c-21.64-7.68-40.47-8.2-56.46-4.73-3.48-3.16-9.13-7.88-17.07-23.56-.52-.93-.83,2-1.25,1-3.11-7.16-5-18.89-4.67-27,0,0-6.38,2.9-11.67,15.1-1,2.18-1.61,3.37-2.24,4.62-.31.36.68-4,.52-3.74-.93,1.56-3.32,3.74-4.36,6.54C57.66,79.76,56.67,81,56,83.55l-.16.26c-.05-.78.21-3.16,0-2.64a117.72,117.72,0,0,0-6.38,15.46,143.45,143.45,0,0,0-6.7,38.72c-.1,1.24,0,2.64-.1,3.78-6.75,7.68-11.37,14.22-13.08,17.6-8.72,13.49-18.32,34.46-27.66,67.72A166.37,166.37,0,0,1,16.71,198.5C9,216,1.5,243.7,0,286.36a226.66,226.66,0,0,1,7.21-26.05c-1.35,28.44,2,63.68,20,103.48,10.69,23.36,35.24,70.89,95.29,108h0s20.44,15.2,55.52,26.62c2.6.93,5.25,1.87,7.89,2.75-.83-.36-1.66-.67-2.44-1a250.71,250.71,0,0,0,72,10.59c90.92.1,117.75-36.43,117.75-36.43l-.26.21a42.46,42.46,0,0,0,3.68-3.79c-14.32,13.54-47.12,14.42-59.31,13.49C338.21,478,352,472.83,378.69,462.6c3.11-1.14,6.33-2.49,9.6-3.94l1-.47c.62-.31,1.29-.57,2-.88a180.78,180.78,0,0,0,36.48-22.83c26.83-21.44,32.7-42.35,35.71-56.1-.42,1.29-1.77,4.41-2.7,6.38-6.91,14.79-22.21,23.87-38.87,31.66a359.48,359.48,0,0,0,22-32.39C449.32,378.53,451,370.12,455,364.42Z"/><path class="cls-8" d="M422.38,415.69a170.14,170.14,0,0,0,28.18-41.52C469.71,333.9,499.35,267,476,197.05c-18.37-55.27-43.69-85.47-75.82-115C348,34.15,333.43,12.71,333.43,0c0,0-60.25,67.15-34.09,137.21S379,204.68,414.39,277.8c41.67,86-33.73,179.87-96,206.13C322.17,483.1,457,452.59,464,375.52,463.8,376.92,460.74,398.25,422.38,415.69Z"/><path class="cls-9" d="M247.86,165.76c.2-4.57-2.18-7.63-39.81-11.16-15.46-1.45-21.43-15.73-23.25-21.75-5.5,14.33-7.78,29.33-6.54,47.49.83,11.88,8.83,24.65,12.67,32.18,0,0,.83-1.09,1.24-1.51,7.22-7.47,37.32-18.89,40.17-20.5C235.45,188.49,247.34,179.77,247.86,165.76Z"/><path class="cls-10" d="M82.15,81.22c-.52-.94-.83,2-1.24,1-3.12-7.17-5-18.79-4.52-27,0,0-6.38,2.91-11.68,15.1-1,2.18-1.6,3.37-2.23,4.62-.31.36.68-4,.52-3.74-.93,1.56-3.32,3.74-4.31,6.44a35.7,35.7,0,0,0-2.38,6.12c-.21.73.21-3.27,0-2.8C44,104.67,41.62,140.64,42.92,139.08c26.21-28,56.2-34.56,56.2-34.56-3.16-2.39-10.12-9.19-17-23.3Z"/><path class="cls-11" d="M181.53,373.7c-36.17-15.46-77.32-37.26-75.77-86.71,2.13-65.19,60.83-52.32,60.83-52.32-2.23.52-8.15,4.78-10.23,9.24-2.23,5.61-6.28,18.32,6,31.61,19.26,20.86-39.54,49.51,51.22,103.58,2.29,1.25-21.27-.78-32-5.4Z"/><path class="cls-12" d="M168.71,341.22c25.64,8.92,55.53,7.37,73.44-2.55,12-6.64,27.35-17.33,36.79-14.68-8.2-3.22-14.37-4.78-21.85-5.14a36.51,36.51,0,0,1-4.15-.16,72.72,72.72,0,0,0-8.2.47c-4.62.42-9.75,3.32-14.37,2.86-.26,0,4.51-2,4.15-1.87-2.49.52-5.14.62-8,1-1.82.21-3.38.42-5.14.52-53.45,4.52-98.6-29-98.6-29-3.84,13,17.23,38.56,45.92,48.53Z"/><path class="cls-13" d="M422.28,416.05c54.08-53.09,81.43-117.59,69.85-189.94,0,0,4.62,37.11-12.87,75,8.41-37,9.4-83.08-13-130.77-29.84-63.63-78.88-97.15-97.62-111.11-28.39-21.18-40.11-42.72-40.37-47.18-8.46,17.39-34.15,76.91-2.75,128.19,29.37,48.05,75.71,62.27,108.1,106.38C493.38,327.83,422.28,416.05,422.28,416.05Z"/><path class="cls-14" d="M414.55,277.9c-18.89-39-42.45-56-64.77-74.47,2.6,3.64,3.22,4.93,4.67,7.27,19.62,20.91,48.58,72,27.56,136-39.55,120.61-197.78,63.83-214.38,47.85,6.69,69.8,123.51,103.22,199.59,58C410.5,411.54,445.53,341.89,414.55,277.9Z"/></g></g></svg>