<svg width="46" height="42" viewBox="0 0 46 42" xmlns="http://www.w3.org/2000/svg"><title>Icon</title><g fill="#9C9CFF" fill-rule="evenodd"><path d="M11.144 26.498c2.133 2.1 5.018 3.274 8.092 3.274 3.075 0 5.898-1.173 8.093-3.274l2.632-2.593c.503-.495.503-1.236 0-1.73-.503-.496-1.255-.496-1.757 0l-2.696 2.53c-1.693 1.667-3.888 2.593-6.274 2.593-2.385 0-4.642-.926-6.272-2.592L5.75 17.664C2.3 14.267 2.3 8.708 5.75 5.25c3.45-3.397 9.095-3.397 12.607 0l2.32 2.284c.503.495 1.255.495 1.758 0 .503-.495.503-1.236 0-1.73l-2.32-2.285C15.663-.867 8.45-.867 3.995 3.52c-4.452 4.384-4.452 11.487 0 15.872l7.15 7.106z"/><path d="M16.038 18.16c-.503.495-.503 1.235 0 1.73.503.496 1.255.496 1.757 0l2.696-2.596c1.693-1.666 3.888-2.592 6.274-2.592 2.385 0 4.642.926 6.272 2.592l7.214 7.103c3.45 3.397 3.45 8.956 0 12.414-3.45 3.398-9.095 3.398-12.607 0l-2.32-2.283c-.503-.495-1.255-.495-1.758 0-.503.495-.503 1.236 0 1.73l2.32 2.285c2.195 2.162 5.142 3.274 8.092 3.274 2.947 0 5.836-1.112 8.093-3.274 4.453-4.384 4.453-11.487 0-15.873L34.856 15.5c-2.133-2.1-5.018-3.274-8.092-3.274-3.075 0-5.898 1.173-8.093 3.274L16.04 18.16z"/></g></svg>