<svg width="46" height="42" viewBox="0 0 46 42" xmlns="http://www.w3.org/2000/svg">
  <title>
    Icon
  </title>
  <g fill="#9C9CFF" fill-rule="evenodd">
    <path d="M11.144 26.498c2.133 2.1 5.018 3.274 8.092 3.274 3.075 0 5.898-1.173 8.093-3.274l2.63-2.593c.5-.495.5-1.236 0-1.73-.51-.496-1.26-.496-1.76 0l-2.7 2.53c-1.693 1.667-3.888 2.593-6.274 2.593-2.385 0-4.64-.926-6.27-2.592l-7.21-7.042C2.3 14.267 2.3 8.708 5.75 5.25c3.45-3.397 9.095-3.397 12.607 0l2.32 2.284c.503.495 1.255.495 1.758 0 .503-.495.503-1.236 0-1.73l-2.32-2.285C15.663-.87 8.45-.87 3.995 3.52c-4.452 4.384-4.452 11.487 0 15.872l7.15 7.106z"/>
    <path d="M16.038 18.16c-.503.495-.503 1.235 0 1.73.503.496 1.255.496 1.757 0l2.696-2.596c1.7-1.666 3.89-2.592 6.28-2.592 2.388 0 4.64.926 6.27 2.592l7.218 7.103c3.45 3.397 3.45 8.956 0 12.414-3.45 3.4-9.094 3.4-12.606 0l-2.32-2.28c-.503-.49-1.255-.49-1.76 0-.503.5-.503 1.24 0 1.73l2.32 2.29c2.195 2.16 5.14 3.275 8.09 3.275s5.838-1.112 8.095-3.274c4.454-4.384 4.454-11.487 0-15.873L34.86 15.5c-2.134-2.1-5.02-3.273-8.093-3.273-3.075 0-5.898 1.173-8.093 3.274l-2.63 2.66z"/>
  </g>
</svg>
